<?xml version="1.0" standalone="no"?>
<!DOCTYPE svg PUBLIC "-//W3C//DTD SVG 1.1//EN" "http://www.w3.org/Graphics/SVG/1.1/DTD/svg11.dtd" >
<svg xmlns="http://www.w3.org/2000/svg">
<metadata></metadata>
<defs>
<font id="motiva_sans_blackregular" horiz-adv-x="1298" >
<font-face units-per-em="2048" ascent="1540" descent="-508" />
<missing-glyph horiz-adv-x="512" />
<glyph horiz-adv-x="2048" />
<glyph horiz-adv-x="2048" />
<glyph unicode="&#xd;" horiz-adv-x="2048" />
<glyph unicode=" "  horiz-adv-x="512" />
<glyph unicode="&#x09;" horiz-adv-x="512" />
<glyph unicode="&#xa0;" horiz-adv-x="512" />
<glyph unicode="!" horiz-adv-x="714" d="M131 190q0 114 67 171t160 57t159.5 -57t66.5 -171q0 -116 -66.5 -174.5t-159.5 -58.5t-160 58.5t-67 174.5zM145 1438h424l-45 -920h-334z" />
<glyph unicode="&#x22;" horiz-adv-x="993" d="M133 1444h295l-51 -455h-195zM561 1444h299l-53 -455h-197z" />
<glyph unicode="#" horiz-adv-x="1366" d="M27 358v222h272l37 284h-270v226h299l43 344h225l-43 -344h233l41 344h226l-41 -344h292v-226h-319l-33 -284h311v-222h-337l-43 -358h-226l43 358h-239l-45 -358h-228l45 358h-243zM526 580h238l33 284h-236z" />
<glyph unicode="$" horiz-adv-x="1210" d="M72 84l135 328q178 -93 344 -93q89 0 134.5 28.5t45.5 72.5q0 43 -57 79.5t-219 96.5q-177 65 -259.5 156.5t-82.5 238.5q0 180 108 291t291 141l-6 246h278l-6 -244q107 -15 195.5 -50t138.5 -85l-164 -289q-62 46 -144.5 74.5t-148.5 28.5q-59 0 -96 -22.5t-37 -59.5 q0 -40 41 -66.5t166 -80.5q28 -12 43 -19q113 -49 184.5 -92.5t115 -92t60.5 -100.5t17 -122q0 -194 -120.5 -321t-311.5 -161l8 -217h-283l9 213q-194 18 -379 121z" />
<glyph unicode="%" horiz-adv-x="1693" d="M39 1065q0 185 101 289t263 104q170 0 276.5 -104t106.5 -291q0 -183 -104 -285t-276 -102q-166 0 -266.5 103t-100.5 286zM238 0l981 1434h206l-976 -1434h-211zM299 1065q0 -95 25.5 -141.5t83.5 -46.5q63 0 85.5 44t22.5 144t-22.5 146t-85.5 46q-58 0 -83.5 -48 t-25.5 -144zM920 369q0 185 101 289t263 104q170 0 276.5 -104t106.5 -291q0 -183 -104.5 -285t-276.5 -102q-166 0 -266 103t-100 286zM1180 369q0 -96 25 -142.5t83 -46.5q63 0 86 44.5t23 144.5t-23 146t-86 46q-58 0 -83 -48t-25 -144z" />
<glyph unicode="&#x26;" horiz-adv-x="1574" d="M150 360q0 118 60.5 206.5t180.5 170.5q-79 79 -120.5 159t-41.5 183q0 177 118 284t323 107q187 0 308.5 -100t121.5 -250q0 -122 -42.5 -217t-154.5 -182l139 -121l142 256l291 -133l-97 -197q-45 -91 -82 -149l203 -178l-207 -232l-192 164q-179 -156 -428 -156 q-242 0 -382 99.5t-140 285.5zM549 406q0 -38 31 -60t86 -22q69 0 151 45l-182 155q-45 -34 -65.5 -61t-20.5 -57zM596 1069q0 -66 80 -143q78 65 78 145q0 43 -23 62.5t-57 19.5t-56 -23t-22 -61z" />
<glyph unicode="'" horiz-adv-x="417" d="M20 1444h377l-51 -449h-280z" />
<glyph unicode="(" horiz-adv-x="815" d="M82 686q0 145 30 272.5t76.5 219t116.5 174.5t135.5 138t147.5 109l186 -161q-54 -46 -96.5 -89.5t-96 -115t-89 -147t-60 -180.5t-24.5 -220t24.5 -220t60 -180.5t89 -147t96 -115t96.5 -89.5l-186 -161q-82 54 -147.5 109t-135.5 138t-116.5 174.5t-76.5 219t-30 272.5 z" />
<glyph unicode=")" horiz-adv-x="815" d="M41 -66q54 47 96.5 90t96.5 115t89 147t60 180t25 220t-25 220t-60 180t-89 147t-96.5 115t-96.5 90l186 161q82 -54 147.5 -109t135.5 -138t116.5 -174.5t76.5 -219t30 -272.5t-30 -272.5t-76.5 -219t-116.5 -174.5t-135.5 -138t-147.5 -109z" />
<glyph unicode="*" horiz-adv-x="935" d="M123 1096l162 67l-158 78l98 170l156 -106l-27 196h224l-27 -196l151 116l107 -196l-162 -62l166 -71l-111 -193l-151 113l27 -189h-224l27 189l-150 -113z" />
<glyph unicode="+" horiz-adv-x="1386" d="M190 602v205h404v430h209v-430h403v-205h-403v-430h-209v430h-404z" />
<glyph unicode="," horiz-adv-x="550" d="M102 197q0 86 54 130t123 44q34 0 67 -11.5t64.5 -36t51 -70.5t19.5 -108q0 -141 -71.5 -273.5t-186.5 -217.5l-108 88q49 46 93 114t66 144q-73 10 -122.5 62t-49.5 135z" />
<glyph unicode="-" horiz-adv-x="933" d="M102 471v315h729v-315h-729z" />
<glyph unicode="." horiz-adv-x="632" d="M129 152q0 93 56 140.5t130 47.5q76 0 132.5 -47t56.5 -141q0 -96 -56.5 -145.5t-132.5 -49.5q-73 0 -129.5 50t-56.5 145z" />
<glyph unicode="/" horiz-adv-x="770" d="M4 -102l471 1642h289l-463 -1642h-297z" />
<glyph unicode="0" horiz-adv-x="1490" d="M61 729q0 146 35.5 268t98.5 208.5t149.5 146.5t187.5 89t213 29q141 0 263 -46.5t217 -136t150 -233.5t55 -325q0 -188 -54.5 -336.5t-150 -240.5t-217.5 -139.5t-263 -47.5t-263 47.5t-217 139.5t-149.5 240t-54.5 337zM489 729q0 -414 256 -414q259 0 259 414 q0 391 -259 391q-256 0 -256 -391z" />
<glyph unicode="1" horiz-adv-x="1308" d="M76 1180l514 258h317v-1065h307v-373h-1038v373h316v606l-271 -94z" />
<glyph unicode="2" horiz-adv-x="1345" d="M82 1309q212 161 520 161q167 0 296 -49.5t206.5 -153.5t77.5 -251q0 -128 -66 -238t-219 -239l-203 -166h531v-373h-1069v315l395 338q97 82 139.5 144t42.5 129q0 85 -61.5 125.5t-167.5 40.5q-148 0 -256 -74z" />
<glyph unicode="3" horiz-adv-x="1277" d="M59 143l164 289q130 -98 342 -98q215 0 215 135q0 64 -46 90.5t-144 26.5h-266v284h215q192 0 192 129q0 52 -43 83.5t-125 31.5q-169 0 -313 -86l-170 285q95 73 234.5 112t301.5 39q120 0 214.5 -19t155 -51.5t100.5 -79t56.5 -97t16.5 -109.5q0 -62 -20 -121.5 t-71.5 -118t-129.5 -92.5v-12q135 -31 207 -120t72 -202q0 -220 -165 -343.5t-436 -123.5q-170 0 -320 44.5t-237 123.5z" />
<glyph unicode="4" horiz-adv-x="1386" d="M88 279v268l705 887h344v-840h192v-315h-192v-279h-416v279h-633zM477 594h260v330z" />
<glyph unicode="5" horiz-adv-x="1333" d="M139 98l129 320q169 -84 332 -84q94 0 152.5 40.5t58.5 114.5q0 72 -44.5 110t-125.5 38q-121 0 -215 -94l-252 131v764h1004v-373h-611v-197q97 58 244 58q193 0 308.5 -116t115.5 -333q0 -225 -167 -363.5t-443 -138.5q-157 0 -283 34t-203 89z" />
<glyph unicode="6" horiz-adv-x="1443" d="M86 707q0 149 34 272.5t95.5 211.5t148 148.5t190.5 89.5t224 29q315 0 508 -131l-182 -293q-46 29 -127 54.5t-168 25.5q-129 0 -210 -70.5t-99 -212.5q146 113 331 113q103 0 191 -30t154 -85.5t103.5 -141t37.5 -191.5q0 -226 -159.5 -373.5t-418.5 -147.5 q-142 0 -259.5 44.5t-206.5 132t-138 229.5t-49 326zM526 532q11 -92 61.5 -149t133.5 -57q68 0 117 38.5t49 104.5q0 69 -42 108t-110 39q-118 0 -209 -84z" />
<glyph unicode="7" horiz-adv-x="1140" d="M12 1065v373h1067v-316l-473 -1122h-436l457 1065h-615z" />
<glyph unicode="8" horiz-adv-x="1318" d="M61 401q0 110 63 202t165 145q-85 33 -148 114.5t-63 181.5q0 131 78 226.5t206 141.5t289 46q159 0 286.5 -46t205.5 -141.5t78 -226.5q0 -106 -52.5 -189t-140.5 -114q106 -45 167.5 -124.5t61.5 -188.5q0 -140 -77 -246t-214.5 -162.5t-314.5 -56.5q-263 0 -426.5 120 t-163.5 318zM479 457q0 -62 49 -103t125 -41t124 41t48 103q0 59 -48.5 98t-123.5 39t-124.5 -39t-49.5 -98zM510 993q0 -51 39.5 -82.5t101.5 -31.5t102 31.5t40 82.5q0 50 -39.5 81.5t-102.5 31.5t-102 -31.5t-39 -81.5z" />
<glyph unicode="9" d="M25 934q0 243 156.5 386.5t408.5 143.5q154 0 276 -42t212.5 -129t139 -229t48.5 -333q0 -161 -41.5 -291.5t-110.5 -215.5t-162 -142.5t-191.5 -82t-203.5 -24.5q-135 0 -252 25.5t-186 65.5l82 296q165 -47 338 -47q137 0 223.5 72.5t97.5 224.5q-61 -83 -137.5 -120 t-183.5 -37q-68 0 -135.5 13.5t-137 48.5t-122 87.5t-86 137.5t-33.5 192zM438 952q0 -155 189 -155q63 0 120 36.5t80 104.5q-13 82 -77.5 129t-143.5 47q-80 0 -124 -43.5t-44 -118.5z" />
<glyph unicode=":" horiz-adv-x="628" d="M92 188q0 59 19.5 103.5t52.5 69.5t70.5 37t78.5 12q94 0 159 -54t65 -168q0 -115 -65.5 -173t-158.5 -58q-88 0 -154.5 58.5t-66.5 172.5zM92 877q0 57 19.5 101t52 69.5t70.5 38t79 12.5q93 0 158.5 -55.5t65.5 -165.5q0 -60 -19 -105.5t-51.5 -71t-71 -37.5t-82.5 -12 q-41 0 -78.5 12t-70.5 37.5t-52.5 71t-19.5 105.5z" />
<glyph unicode=";" horiz-adv-x="628" d="M117 197q0 86 53.5 130t122.5 44q34 0 67 -11.5t65 -36t51.5 -70.5t19.5 -108q0 -141 -71.5 -273.5t-186.5 -217.5l-109 88q50 46 94 114t66 144q-73 10 -122.5 62t-49.5 135zM123 909q0 91 55.5 140t124.5 49q76 0 132.5 -48.5t56.5 -140.5q0 -96 -56 -144t-133 -48 q-69 0 -124.5 49t-55.5 143z" />
<glyph unicode="&#x3c;" horiz-adv-x="1028" d="M41 492v213l762 464l119 -215l-590 -358l614 -393l-139 -187z" />
<glyph unicode="=" horiz-adv-x="1333" d="M209 244v205h948v-205h-948zM209 633v205h948v-205h-948z" />
<glyph unicode="&#x3e;" horiz-adv-x="1028" d="M82 203l614 393l-590 358l119 215l762 -464v-213l-766 -476z" />
<glyph unicode="?" horiz-adv-x="1060" d="M29 1323q86 63 220.5 99t276.5 36q232 0 363 -94.5t131 -249.5q0 -55 -19.5 -102.5t-51.5 -84t-70.5 -70.5t-78 -69.5t-73 -74t-56.5 -90t-28 -111.5h-281q0 98 21.5 176.5t52 125t61.5 82.5t52.5 69.5t21.5 66.5q0 86 -155 86q-133 0 -248 -67zM281 193q0 98 58.5 155.5 t152.5 57.5t152 -57.5t58 -155.5q0 -99 -58.5 -158.5t-151.5 -59.5t-152 59.5t-59 158.5z" />
<glyph unicode="@" horiz-adv-x="1961" d="M72 469q0 204 72.5 373t203 285.5t316 180.5t407.5 64q196 0 353 -54t258 -150t154.5 -227t53.5 -286q0 -125 -32 -229.5t-94.5 -183.5t-161.5 -123.5t-226 -44.5q-166 0 -254 98q-89 -59 -225 -59q-63 0 -119 21.5t-102.5 64.5t-73.5 117t-27 171q0 211 129 323t349 112 q159 0 336 -66l-46 -395q-4 -69 15.5 -101t50.5 -32q84 0 134 84t50 213q0 499 -528 499q-317 0 -506.5 -175t-189.5 -478q0 -266 158.5 -419.5t422.5 -153.5q156 0 303 57l88 -252q-203 -74 -419 -74q-90 0 -176 13.5t-171 44t-159 76t-138 113.5t-109 152.5t-71 197 t-26 243.5zM866 487q0 -62 25.5 -96.5t62.5 -34.5q65 0 107 52v2l35 264q-28 12 -84 12q-71 0 -108.5 -54t-37.5 -145z" />
<glyph unicode="A" horiz-adv-x="1593" d="M51 0l541 1434h385l565 -1434h-440l-74 215h-479l-70 -215h-428zM651 532h271l-140 412z" />
<glyph unicode="B" horiz-adv-x="1404" d="M113 0v1434h604q518 0 518 -371q0 -200 -174 -295q75 -27 126.5 -64.5t78 -83.5t37 -92.5t10.5 -103.5q0 -190 -145 -307t-392 -117h-663zM530 342h205q66 0 101.5 35t35.5 90q0 51 -33.5 78.5t-97.5 27.5h-211v-231zM530 870h170q129 0 129 115q0 105 -135 105h-164 v-220z" />
<glyph unicode="C" horiz-adv-x="1388" d="M92 725q0 178 57.5 321t159 235t238 140.5t297.5 48.5q141 0 276 -37.5t213 -101.5l-186 -325q-57 41 -133.5 63.5t-149.5 22.5q-145 0 -239.5 -96t-94.5 -271q0 -183 96.5 -283t235.5 -100q159 0 299 113l197 -295q-83 -84 -226 -140.5t-313 -56.5q-143 0 -273 51.5 t-231.5 146t-162 241t-60.5 323.5z" />
<glyph unicode="D" horiz-adv-x="1497" d="M113 0v1434h497q232 0 411.5 -85t281.5 -247.5t102 -378.5q0 -218 -101.5 -383t-281.5 -252.5t-412 -87.5h-497zM530 367h103q332 0 332 356q0 183 -85 260.5t-247 77.5h-103v-694z" />
<glyph unicode="E" horiz-adv-x="1255" d="M113 0v1434h1020v-349h-611v-192h512v-348h-512v-197h611v-348h-1020z" />
<glyph unicode="F" horiz-adv-x="1212" d="M113 0v1432h977v-349h-568v-274h494v-348h-494v-461h-409z" />
<glyph unicode="G" horiz-adv-x="1519" d="M92 698q0 150 41 277.5t113 218t169 154.5t208.5 94.5t232.5 30.5q161 0 298 -42t235 -112l-191 -305q-140 80 -313 80q-158 0 -255.5 -96t-97.5 -279q0 -177 89.5 -276t226.5 -99q111 0 182 33v180h-280v324h669v-719q-105 -90 -255.5 -143.5t-329.5 -53.5 q-109 0 -212.5 26t-200.5 84t-169.5 141.5t-116 207.5t-43.5 274z" />
<glyph unicode="H" horiz-adv-x="1581" d="M113 0v1434h409v-551h541v551h405v-1434h-405v535h-541v-535h-409z" />
<glyph unicode="I" horiz-adv-x="684" d="M137 0v1434h410v-1434h-410z" />
<glyph unicode="J" horiz-adv-x="1011" d="M49 0l31 334q78 -17 188 -17q99 0 156 52t57 151v914h418v-906q0 -127 -27 -225.5t-73.5 -163t-114.5 -106t-144.5 -59t-168.5 -17.5q-191 0 -322 43z" />
<glyph unicode="K" horiz-adv-x="1525" d="M113 0v1434h424v-498l391 498h551l-570 -623l607 -811h-529l-369 496l-81 -90v-406h-424z" />
<glyph unicode="L" horiz-adv-x="1177" d="M113 0v1434h409v-1065h635v-369h-1044z" />
<glyph unicode="M" horiz-adv-x="1820" d="M113 0v1434h383l422 -897l403 897h387v-1434h-389v700l-297 -632h-234l-286 616v-684h-389z" />
<glyph unicode="N" horiz-adv-x="1529" d="M113 0v1434h344l542 -738v738h418v-1434h-344l-551 723v-723h-409z" />
<glyph unicode="O" horiz-adv-x="1675" d="M92 733q0 150 41 273.5t111.5 208.5t166.5 143t203 85t224 27t224 -27t202.5 -85t166 -143t111.5 -208.5t41 -273.5q0 -153 -41 -281.5t-111.5 -217.5t-166 -151t-203 -91t-223.5 -29t-224 29t-203.5 91t-166 151t-111.5 217.5t-41 281.5zM532 727q0 -186 83 -285.5 t223 -99.5t222.5 99.5t82.5 285.5q0 183 -81.5 274t-223.5 91t-224 -91t-82 -274z" />
<glyph unicode="P" horiz-adv-x="1310" d="M113 0v1434h559q290 0 446 -140.5t156 -371.5q0 -105 -38.5 -195.5t-112.5 -160t-190.5 -109t-262.5 -39.5h-148v-418h-409zM522 766h146q81 0 124.5 45t43.5 127q0 68 -45.5 107.5t-126.5 39.5h-142v-319z" />
<glyph unicode="Q" horiz-adv-x="1675" d="M92 733q0 150 41 273.5t111.5 208.5t166.5 143t203 85t224 27t224 -27t202.5 -85t166 -143t111.5 -208.5t41 -273.5q0 -266 -114.5 -443.5t-305.5 -260.5l336 -115l-188 -293l-629 356q-123 23 -227.5 80.5t-186.5 149t-129 226.5t-47 300zM532 727q0 -186 83 -285.5 t223 -99.5t222.5 99.5t82.5 285.5q0 183 -81.5 274t-223.5 91t-224 -91t-82 -274z" />
<glyph unicode="R" horiz-adv-x="1425" d="M113 0v1434h579q319 0 475 -122.5t156 -353.5q0 -320 -260 -452l321 -506h-454l-252 424h-31h-125v-424h-409zM522 772h150q213 0 213 168q0 73 -50 109t-159 36h-154v-313z" />
<glyph unicode="S" horiz-adv-x="1265" d="M72 109l118 340q198 -95 388 -95q90 0 139 24t49 71q0 15 -4.5 25.5t-16.5 19.5t-26.5 15.5t-42.5 15t-55.5 16t-73.5 21.5t-90 28q-186 60 -275.5 156.5t-89.5 254.5q0 148 75 253t200.5 154.5t289.5 49.5q154 0 293 -42t213 -105l-172 -303q-64 48 -154 76t-165 28 q-152 0 -152 -90q0 -17 5 -30t19 -23.5t29 -18t45 -17.5t56.5 -17t73.5 -20.5t86 -25.5q127 -39 205 -87.5t121.5 -126.5t43.5 -189q0 -161 -80.5 -273.5t-217 -165.5t-316.5 -53q-124 0 -264 33.5t-254 100.5z" />
<glyph unicode="T" horiz-adv-x="1374" d="M82 1085v349h1210v-349h-399v-1085h-410v1085h-401z" />
<glyph unicode="U" horiz-adv-x="1454" d="M113 522v912h409v-893q0 -100 52 -151.5t153 -51.5q99 0 152 52t53 151v893h409v-912q0 -120 -31.5 -215.5t-87 -159t-134 -105.5t-168 -60.5t-193.5 -18.5t-193.5 18.5t-168 60.5t-134 105.5t-87 159t-31.5 215.5z" />
<glyph unicode="V" horiz-adv-x="1523" d="M16 1434h451l299 -940l293 940h450l-548 -1434h-402z" />
<glyph unicode="W" horiz-adv-x="2052" d="M-12 1434h438l219 -758l250 758h287l262 -770l205 770h415l-475 -1434h-276l-283 764l-285 -764h-278z" />
<glyph unicode="X" horiz-adv-x="1472" d="M-20 0l520 739l-500 695h483l238 -377l223 377h498l-516 -682l567 -752h-485l-285 442l-268 -442h-475z" />
<glyph unicode="Y" horiz-adv-x="1361" d="M-20 1434h471l243 -465l250 465h438l-497 -867v-567h-410v571z" />
<glyph unicode="Z" horiz-adv-x="1294" d="M53 0v244l604 841h-575v349h1116v-236l-635 -850h678v-348h-1188z" />
<glyph unicode="[" horiz-adv-x="694" d="M102 -293v1884h551v-264h-252v-1354h252v-266h-551z" />
<glyph unicode="\" horiz-adv-x="888" d="M-100 1540h290l478 -1642h-293z" />
<glyph unicode="]" horiz-adv-x="694" d="M41 -27h250v1354h-250v264h551v-1884h-551v266z" />
<glyph unicode="^" horiz-adv-x="1331" d="M86 815l522 741h244l524 -741h-405l-240 342l-237 -342h-408z" />
<glyph unicode="_" horiz-adv-x="1394" d="M98 0h1180v-324h-1180v324z" />
<glyph unicode="`" horiz-adv-x="819" d="M143 1540h418l115 -330h-207z" />
<glyph unicode="a" horiz-adv-x="1224" d="M76 324q0 156 114.5 238.5t305.5 82.5q106 0 184 -16v26q0 83 -39.5 114.5t-118.5 31.5q-78 0 -148.5 -21.5t-115.5 -60.5l-141 237q87 75 213.5 114.5t242.5 39.5q250 0 373 -109t123 -305v-352q0 -72 49 -72h64l-25 -254q-60 -47 -194 -47q-161 0 -218 105 q-30 -24 -50 -38.5t-58 -34.5t-84.5 -30t-101.5 -10q-77 0 -143.5 22t-119 65t-82.5 113.5t-30 160.5zM432 336q0 -51 29.5 -73.5t70.5 -22.5q109 0 154 86v84q-53 20 -141 20q-113 0 -113 -94z" />
<glyph unicode="b" horiz-adv-x="1277" d="M102 0v1540h390v-541h6q92 111 260 111q199 0 323.5 -146.5t124.5 -410.5q0 -267 -138.5 -428.5t-352.5 -161.5q-102 0 -170 36.5t-121 102.5h-12l-60 -102h-250zM492 350q51 -45 133 -45q87 0 136.5 65t49.5 175q0 102 -47.5 155.5t-132.5 53.5q-80 0 -139 -52v-352z " />
<glyph unicode="c" horiz-adv-x="1091" d="M72 541q0 133 44.5 242.5t120 179.5t172.5 108.5t205 38.5q129 0 225.5 -31t178.5 -98l-137 -270q-84 67 -203 67q-95 0 -156 -61.5t-61 -173.5q0 -111 60.5 -178.5t152.5 -67.5q124 0 215 78l155 -252q-153 -160 -415 -160q-112 0 -212.5 40t-177.5 112.5t-122 183 t-45 242.5z" />
<glyph unicode="d" horiz-adv-x="1280" d="M72 543q0 143 41.5 255t110.5 178t151.5 100t171.5 34q138 0 241 -80v510h390v-1540h-279l-43 121h-4q-117 -158 -303 -158q-68 0 -134.5 20.5t-129 66.5t-109.5 112t-75.5 164.5t-28.5 216.5zM467 547q0 -104 50.5 -164.5t121.5 -60.5q47 0 87 27t62 73v262 q-46 72 -139 72q-85 0 -133.5 -54t-48.5 -155z" />
<glyph unicode="e" horiz-adv-x="1165" d="M72 532q0 164 66.5 295.5t188.5 207t279 75.5q126 0 226 -41.5t161 -112t93 -158t32 -184.5q0 -103 -20 -190h-637q41 -154 211 -154q138 0 252 88l137 -254q-174 -141 -445 -141q-117 0 -215.5 35.5t-172 104.5t-115 179t-41.5 250zM457 657h303q-3 81 -41 120.5 t-105 39.5q-65 0 -104 -36.5t-53 -123.5z" />
<glyph unicode="f" horiz-adv-x="802" d="M31 741v332h131v135q0 81 26 149.5t77.5 122t135.5 83.5t193 30q154 0 229 -43l-55 -270q-55 14 -113 14q-102 0 -102 -104v-117h217v-332h-217v-741h-391v741h-131z" />
<glyph unicode="g" horiz-adv-x="1271" d="M72 573q0 125 37 228.5t100.5 170t146 102.5t174.5 36q100 0 176 -39.5t119 -101.5h15l55 108h274v-973q0 -148 -41 -257.5t-118.5 -175.5t-180 -98t-233.5 -32t-256 33.5t-205 89.5l125 289q56 -39 138 -61.5t165 -22.5q110 0 173 41.5t63 126.5v92q-101 -88 -248 -88 q-215 0 -347 144.5t-132 387.5zM467 575q0 -89 45 -137.5t119 -48.5q107 0 153 86v211q-72 68 -157 68q-72 0 -116 -47t-44 -132z" />
<glyph unicode="h" horiz-adv-x="1277" d="M102 0v1540h387v-582q129 144 322 144q88 0 153.5 -21t114 -67t73 -124.5t24.5 -189.5v-700h-392v643q0 53 -27 83t-67 30q-59 0 -105.5 -31.5t-92.5 -101.5v-623h-390z" />
<glyph unicode="i" horiz-adv-x="686" d="M123 1380q0 106 63 159.5t154 53.5q95 0 159 -53t64 -160q0 -106 -64.5 -159.5t-158.5 -53.5q-90 0 -153.5 54t-63.5 159zM147 0v1073h390v-1073h-390z" />
<glyph unicode="j" horiz-adv-x="686" d="M-190 -393l77 289q71 -23 138 -23t94.5 23.5t27.5 85.5v1091h390v-1132q0 -163 -120 -281.5t-304 -118.5q-191 0 -303 66zM109 1380q0 106 63 159.5t154 53.5q95 0 159 -53t64 -160q0 -106 -64.5 -159.5t-158.5 -53.5q-90 0 -153.5 54t-63.5 159z" />
<glyph unicode="k" horiz-adv-x="1249" d="M102 0v1540h390v-805l249 338h463l-387 -430l438 -643h-448l-238 369l-77 -86v-283h-390z" />
<glyph unicode="l" horiz-adv-x="643" d="M127 0v1540h389v-1540h-389z" />
<glyph unicode="m" horiz-adv-x="1890" d="M102 0v1077h306l28 -145h8q102 170 322 170q229 0 311 -187q113 187 353 187q162 0 260 -98.5t98 -260.5v-743h-399v680q0 37 -21.5 58.5t-58.5 21.5q-115 0 -162 -125v-635h-402v680q0 37 -19.5 58.5t-57.5 21.5q-107 0 -164 -125v-635h-402z" />
<glyph unicode="n" horiz-adv-x="1275" d="M102 0v1073h260l62 -151h12q76 101 162 144.5t197 43.5q174 0 276.5 -100.5t102.5 -278.5v-731h-390v600q0 73 -25.5 104t-74.5 31q-91 0 -192 -127v-608h-390z" />
<glyph unicode="o" d="M72 537q0 116 32 212t87 162t129 111.5t157 66.5t172 21t172 -21t157 -66.5t129 -111.5t87.5 -162t32.5 -212q0 -143 -49 -256t-131.5 -180.5t-184 -102.5t-213.5 -35q-89 0 -172 21t-157 67t-129 112t-87 162t-32 212zM467 537q0 -232 182 -232t182 232q0 231 -182 231 t-182 -231z" />
<glyph unicode="p" horiz-adv-x="1259" d="M102 -422v1499h275l63 -121h4q65 77 134.5 109.5t160.5 32.5q85 0 165 -36t143.5 -101.5t102 -167t38.5 -222.5q0 -288 -144.5 -448t-379.5 -160q-112 0 -172 35v-420h-390zM492 309q38 -35 104 -35q96 0 146.5 68t50.5 188q0 109 -43 167.5t-119 58.5t-139 -66v-381z " />
<glyph unicode="q" horiz-adv-x="1290" d="M72 537q0 115 30.5 212t80.5 162.5t114 111.5t130 66.5t130 20.5q185 0 285 -135h4l55 102h287v-1499h-397v434q-93 -49 -226 -49q-218 0 -355.5 161t-137.5 413zM475 539q0 -112 52 -172t122 -60q40 0 80 13t62 32v322q-58 86 -144 86q-73 0 -122.5 -58.5t-49.5 -162.5z " />
<glyph unicode="r" horiz-adv-x="892" d="M102 0v1073h301l58 -160h6q53 112 115 154.5t143 42.5q100 0 168 -51l-74 -346q-2 1 -13 7.5t-16 9t-17 8t-20.5 8t-21 4.5t-24.5 2q-143 0 -209 -217v-535h-396z" />
<glyph unicode="s" horiz-adv-x="1017" d="M80 76l82 289q131 -74 297 -74q127 0 127 55q0 27 -29 39.5t-99 26t-118 30.5q-250 86 -250 314q0 164 121.5 259t333.5 95q117 0 221 -29t178 -82l-104 -258q-59 34 -139 54t-142 20q-94 0 -94 -51q0 -10 4 -18t14 -15t21 -11.5t31.5 -10.5t39 -10.5t49 -12t56.5 -14.5 q151 -41 222 -114.5t71 -203.5q0 -98 -38 -174t-104.5 -122.5t-152.5 -70.5t-186 -24q-127 0 -236.5 33.5t-175.5 79.5z" />
<glyph unicode="t" horiz-adv-x="962" d="M51 741v332h146v84l161 189h232v-273h260v-332h-260v-350q0 -80 78 -80q60 0 135 23l90 -271q-149 -100 -350 -100q-174 0 -260 80.5t-86 261.5v436h-146z" />
<glyph unicode="u" horiz-adv-x="1259" d="M102 352v721h385v-629q0 -67 29 -93.5t86 -26.5q115 0 168 133v616h387v-1073h-258l-61 133q-116 -158 -334 -158q-194 0 -298 103t-104 274z" />
<glyph unicode="v" horiz-adv-x="1228" d="M0 1077h422l188 -643l183 639h436l-451 -1073h-340z" />
<glyph unicode="w" horiz-adv-x="1634" d="M0 1073h375l147 -559l185 559h239l176 -555l135 555h377l-397 -1073h-236l-190 539l-211 -539h-235z" />
<glyph unicode="x" horiz-adv-x="1107" d="M-33 1055v18h461l123 -266l133 266h426v-16l-336 -510l346 -531v-16h-430l-141 270l-123 -270h-451v16l373 529z" />
<glyph unicode="y" horiz-adv-x="1296" d="M25 1077h405l211 -671l190 671h424l-399 -1149q-69 -198 -179 -286t-284 -88q-79 0 -145 8t-100 16.5t-87 24.5l68 288q99 -30 188 -30q88 0 125 80l11 22z" />
<glyph unicode="z" horiz-adv-x="1046" d="M78 0v250l391 500h-383v323h872v-258l-411 -487h440v-328h-909z" />
<glyph unicode="{" horiz-adv-x="831" d="M119 594v233q190 10 190 187v291q0 174 129 272t355 98v-221q-205 -10 -205 -180v-367q0 -69 -46.5 -121t-107.5 -73v-2q60 -21 107 -74.5t47 -120.5v-369q0 -85 53 -130t152 -50v-221q-229 0 -356.5 98t-127.5 273v293q0 95 -48.5 138t-141.5 46z" />
<glyph unicode="|" horiz-adv-x="479" d="M127 -238v1917h225v-1917h-225z" />
<glyph unicode="}" horiz-adv-x="821" d="M29 -33v-221q228 0 355.5 98t127.5 273v293q0 95 48.5 138t141.5 46v233q-190 10 -190 187v291q0 174 -128.5 272t-354.5 98v-221q204 -9 204 -180v-367q0 -69 46.5 -121t107.5 -73v-2q-60 -21 -107 -74.5t-47 -120.5v-369q0 -85 -53 -130t-151 -50z" />
<glyph unicode="~" horiz-adv-x="1216" d="M88 414q28 200 121.5 292.5t228.5 92.5q61 0 158 -33t156 -33q25 0 61.5 23.5t44.5 50.5h309q-16 -105 -57 -183.5t-96.5 -121.5t-114.5 -63.5t-123 -20.5q-51 0 -157 33.5t-150 33.5q-64 0 -98 -71h-283z" />
<glyph unicode="&#xa1;" horiz-adv-x="536" d="M106 889q0 118 67 175.5t161 57.5t159.5 -57.5t65.5 -175.5q0 -111 -66.5 -169t-158.5 -58t-160 58t-68 169zM135 -360l43 921h336l43 -921h-422z" />
<glyph unicode="&#xa2;" horiz-adv-x="1122" d="M72 729q0 120 37 222t101 171.5t147.5 113t179.5 56.5l-17 207h215l-14 -207q174 -20 297 -123l-137 -270q-85 68 -203 68q-95 0 -156 -62t-61 -174q0 -111 60.5 -178.5t152.5 -67.5q124 0 215 78l155 -252q-120 -126 -311 -153l17 -187h-215l14 187q-99 13 -185 58 t-151.5 116.5t-103 173.5t-37.5 223z" />
<glyph unicode="&#xa3;" horiz-adv-x="1189" d="M18 203q8 8 27.5 25t25 23t19 19.5t17.5 21t11.5 21.5t10 26.5t4.5 29.5t2 37v202h-115v185h115v200q0 156 66 264.5t177 158.5t259 50q141 0 242 -21.5t196 -74.5l-178 -305q-40 25 -101.5 39t-105.5 14q-85 0 -126.5 -40.5t-41.5 -143.5v-141h322v-185h-322v-104 q0 -12 1 -39t1 -40t-3.5 -34.5t-10.5 -34.5t-21.5 -29t-35.5 -28q48 10 114 10q33 0 93 -7t110 -7q72 0 174 20l62 -307q-110 -45 -287 -45q-76 0 -191.5 14.5t-177.5 14.5q-132 0 -246 -27z" />
<glyph unicode="&#xa4;" horiz-adv-x="1503" d="M72 233l182 183q-82 135 -82 313q0 194 96 334l-192 190l151 150l197 -197q141 84 326 84t331 -88l199 199l152 -152l-195 -194q90 -137 90 -326q0 -177 -82 -309l187 -187l-152 -151l-184 184q-148 -98 -346 -98q-199 0 -344 96l-183 -182zM547 729q0 -105 52 -162 t151 -57t150.5 57t51.5 162t-51.5 162t-150.5 57t-151 -57t-52 -162z" />
<glyph unicode="&#xa5;" horiz-adv-x="1251" d="M-76 1434h461l254 -525l250 525h438l-381 -617h242v-184h-357l-2 -4v-125h359v-182h-359v-322h-409v322h-363v182h363v129h-363v184h248z" />
<glyph unicode="&#xa6;" horiz-adv-x="450" d="M113 -240v799h225v-799h-225zM113 946v731h225v-731h-225z" />
<glyph unicode="&#xa7;" horiz-adv-x="1134" d="M147 76l99 266q48 -30 137.5 -53t163.5 -23q78 0 115.5 13t37.5 49q0 19 -12 32t-41 23t-57.5 16.5t-81 18t-92.5 22.5q-121 38 -179.5 102.5t-58.5 170.5q0 71 32.5 130.5t92.5 94.5q-57 35 -91 96t-34 140q0 136 115 216t309 80q234 0 391 -71l-96 -269 q-131 44 -260 44q-117 0 -117 -62q0 -36 69 -60q31 -10 175 -44q142 -32 214.5 -97t72.5 -178q0 -73 -37.5 -131t-102.5 -94q72 -30 114 -92t42 -131q0 -139 -124.5 -227.5t-326.5 -88.5q-280 0 -469 107zM481 719q0 -113 131 -113t131 113q0 52 -35.5 82t-95.5 30 q-59 0 -95 -30t-36 -82z" />
<glyph unicode="&#xa8;" horiz-adv-x="819" d="M35 1374q0 86 46 126t118 40q66 0 109.5 -40t43.5 -126q0 -82 -44.5 -122t-108.5 -40q-70 0 -117 40.5t-47 121.5zM469 1374q0 86 46 126t116 40q67 0 110 -40t43 -126q0 -81 -43.5 -121.5t-109.5 -40.5q-69 0 -115.5 40.5t-46.5 121.5z" />
<glyph unicode="&#xa9;" horiz-adv-x="1644" d="M72 715q0 169 60 311t162.5 236.5t239 147t289.5 52.5q151 0 287 -52.5t239 -146.5t163.5 -236.5t60.5 -311.5t-60.5 -311.5t-163.5 -237.5t-239 -148t-287 -53q-153 0 -289.5 53t-239 148t-162.5 237.5t-60 311.5zM268 715q0 -256 152.5 -407.5t402.5 -151.5 q247 0 400 152t153 407q0 254 -153 404.5t-400 150.5q-245 0 -400 -154t-155 -401zM440 719q0 125 54 214.5t141 132t196 42.5q145 0 263 -76l-72 -155q-80 53 -180 53q-91 0 -147 -52.5t-56 -144.5q0 -98 56 -155.5t151 -57.5q96 0 162 53l90 -161q-55 -43 -116 -64.5 t-151 -21.5q-171 0 -281 107.5t-110 285.5z" />
<glyph unicode="&#xaa;" horiz-adv-x="788" d="M31 930q0 98 67 158.5t178 60.5q87 0 152 -14v32q1 30 -28.5 45t-77.5 15q-108 0 -175 -45l-88 174q123 92 306 92q325 0 325 -229v-222q0 -55 53 -55h35l-12 -217q-67 -20 -123 -20q-68 0 -115 24t-65 62q-76 -84 -205 -84q-97 0 -162 62.5t-65 160.5zM264 940 q0 -24 20.5 -39.5t51.5 -15.5q32 0 56.5 14.5t35.5 36.5v49q-48 10 -86 10q-78 0 -78 -55z" />
<glyph unicode="&#xab;" horiz-adv-x="1189" d="M41 516l356 442l193 -176l-234 -264l234 -266l-182 -174zM559 516l361 442l188 -176l-234 -264l234 -266l-182 -174z" />
<glyph unicode="&#xac;" horiz-adv-x="1300" d="M133 662v204h1051v-624h-185v420h-866z" />
<glyph unicode="&#xad;" horiz-adv-x="933" d="M102 471v315h729v-315h-729z" />
<glyph unicode="&#xae;" horiz-adv-x="1644" d="M72 715q0 169 60 311t162.5 236.5t239 147t289.5 52.5q151 0 287 -52.5t239 -146.5t163.5 -236.5t60.5 -311.5t-60.5 -311.5t-163.5 -237.5t-239 -148t-287 -53q-153 0 -289.5 53t-239 148t-162.5 237.5t-60 311.5zM268 715q0 -256 152.5 -407.5t402.5 -151.5 q247 0 400 152t153 407q0 254 -153 404.5t-400 150.5q-245 0 -400 -154t-155 -401zM557 356v744h291q125 0 197.5 -65t72.5 -167q0 -71 -34 -123t-95 -77l172 -312h-198l-132 262h-102v-262h-172zM733 770h105q86 0 86 84q0 78 -95 78h-96v-162z" />
<glyph unicode="&#xaf;" horiz-adv-x="819" d="M104 1257v177h611v-177h-611z" />
<glyph unicode="&#xb0;" horiz-adv-x="878" d="M57 1063q0 91 32.5 163.5t87 116t121.5 66.5t140 23q72 0 139 -23t122.5 -66.5t88.5 -116t33 -163.5q0 -90 -33 -162.5t-88 -116.5t-122.5 -67t-139.5 -23q-73 0 -140 23t-121.5 67t-87 116.5t-32.5 162.5zM313 1063q0 -63 33.5 -99t91.5 -36t92.5 36.5t34.5 98.5 q0 65 -34.5 101t-92.5 36q-59 0 -92 -35.5t-33 -101.5z" />
<glyph unicode="&#xb1;" horiz-adv-x="1173" d="M90 0v205h1016v-205h-1016zM90 799v205h404v430h208v-430h404v-205h-404v-430h-208v430h-404z" />
<glyph unicode="&#xb4;" horiz-adv-x="819" d="M143 1210l115 330h418l-326 -330h-207z" />
<glyph unicode="&#xb6;" horiz-adv-x="1073" d="M92 1069q0 65 13 118.5t43.5 100t78.5 78.5t121.5 50t169.5 18h443v-1434h-205v1214h-125v-1214h-205v700q-151 36 -242.5 128t-91.5 241z" />
<glyph unicode="&#xb7;" horiz-adv-x="495" d="M70 602q0 103 64.5 162t152.5 59q93 0 157 -58.5t64 -162.5q0 -105 -64 -163t-157 -58q-88 0 -152.5 58.5t-64.5 162.5z" />
<glyph unicode="&#xb8;" horiz-adv-x="819" d="M205 -152l69 152h172l-51 -109q107 16 163 -29.5t56 -123.5q0 -109 -85 -178t-216 -80l-65 149q86 17 115.5 41t29.5 54q0 14 -9 24t-22 10q-18 0 -38 -14z" />
<glyph unicode="&#xba;" horiz-adv-x="825" d="M31 1075q0 93 31 166t84.5 117t121.5 67t146 23q71 0 137.5 -23t121.5 -67t88.5 -117.5t33.5 -165.5t-33.5 -165.5t-88.5 -117.5t-121.5 -67t-137.5 -23q-78 0 -146 23t-121.5 67t-84.5 117t-31 166zM307 1075q0 -66 29.5 -96.5t77.5 -30.5q43 0 72.5 31t29.5 96 q0 64 -29.5 95.5t-72.5 31.5q-48 0 -77.5 -31t-29.5 -96z" />
<glyph unicode="&#xbb;" horiz-adv-x="1191" d="M82 252l231 266l-231 264l188 176l361 -442l-369 -438zM602 252l232 266l-232 264l191 176l358 -442l-369 -438z" />
<glyph unicode="&#xbc;" horiz-adv-x="2312" d="M119 1341l284 111h191v-633h182v-215h-631v215h183v371l-144 -37zM715 -303l633 1909h202l-630 -1909h-205zM1487 129v190l387 510h242v-497h133v-203h-133v-147h-250v147h-379zM1722 332h140v205z" />
<glyph unicode="&#xbd;" horiz-adv-x="2312" d="M119 1341l284 111h191v-633h182v-215h-631v215h183v371l-144 -37zM715 -303l633 1909h202l-630 -1909h-205zM1513 750q157 98 353 98q158 0 247 -69t89 -191q0 -148 -181 -269l-151 -102h346v-235h-666v219l236 174q56 42 84 75t28 68q0 82 -104 82q-89 0 -184 -53z" />
<glyph unicode="&#xbe;" horiz-adv-x="2312" d="M61 1380q62 42 150 67.5t172 25.5q177 0 268.5 -59t91.5 -163q0 -132 -125 -196q80 -26 116 -74.5t36 -122.5q0 -124 -108 -199t-269 -75q-199 0 -317 78l49 196q134 -41 233 -41q67 0 99 14.5t32 53.5q0 32 -26 46.5t-82 14.5h-156v178h140q90 0 90 70q0 66 -103 66 q-90 0 -198 -54zM715 -303l633 1909h202l-630 -1909h-205zM1487 129v190l387 510h242v-497h133v-203h-133v-147h-250v147h-379zM1722 332h140v205z" />
<glyph unicode="&#xbf;" horiz-adv-x="1077" d="M70 -41q0 55 19.5 102.5t51 84t70 70.5t78 69.5t73 74t56.5 90t28 111.5h281q0 -98 -21.5 -176.5t-52.5 -125t-61.5 -82.5t-52 -69.5t-21.5 -66.5q0 -86 156 -86q131 0 248 68l139 -273q-86 -62 -221 -98.5t-277 -36.5q-232 0 -362.5 94.5t-130.5 249.5zM387 881 q0 99 59 158t152 59t152 -59t59 -158q0 -98 -58.5 -155.5t-152.5 -57.5t-152.5 57.5t-58.5 155.5z" />
<glyph unicode="&#xc0;" horiz-adv-x="1593" d="M51 0l541 1434h385l565 -1434h-440l-74 215h-479l-70 -215h-428zM346 1901h418l115 -330h-207zM651 532h271l-140 412z" />
<glyph unicode="&#xc1;" horiz-adv-x="1593" d="M51 0l541 1434h385l565 -1434h-440l-74 215h-479l-70 -215h-428zM651 532h271l-140 412zM680 1571l115 330h417l-325 -330h-207z" />
<glyph unicode="&#xc2;" horiz-adv-x="1593" d="M51 0l541 1434h385l565 -1434h-440l-74 215h-479l-70 -215h-428zM418 1583l250 318h225l240 -318h-271l-82 115l-80 -115h-282zM651 532h271l-140 412z" />
<glyph unicode="&#xc3;" horiz-adv-x="1593" d="M51 0l541 1434h385l565 -1434h-440l-74 215h-479l-70 -215h-428zM393 1675q24 114 91.5 170t136.5 56q56 0 106.5 -21t86.5 -42t58 -21q31 0 54 25t45 81l205 -82q-29 -114 -91 -181t-149 -67q-48 0 -96 20t-88.5 40t-71.5 20q-37 0 -61 -24.5t-39 -75.5zM651 532h271 l-140 412z" />
<glyph unicode="&#xc4;" horiz-adv-x="1593" d="M51 0l541 1434h385l565 -1434h-440l-74 215h-479l-70 -215h-428zM406 1735q0 86 46 126t117 40q66 0 110 -40t44 -126q0 -82 -45 -122t-109 -40q-70 0 -116.5 40.5t-46.5 121.5zM651 532h271l-140 412zM840 1735q0 86 45.5 126t115.5 40q67 0 110.5 -40t43.5 -126 q0 -81 -44 -121.5t-110 -40.5q-69 0 -115 40.5t-46 121.5z" />
<glyph unicode="&#xc5;" horiz-adv-x="1593" d="M51 0l541 1434h385l565 -1434h-440l-74 215h-479l-70 -215h-428zM588 1731q0 77 52.5 130.5t143.5 53.5t144 -53.5t53 -130.5q0 -78 -53 -132.5t-144 -54.5t-143.5 54.5t-52.5 132.5zM651 532h271l-140 412zM711 1731q0 -30 18 -52t55 -22q36 0 55 22.5t19 51.5t-19 50 t-55 21q-37 0 -55 -21t-18 -50z" />
<glyph unicode="&#xc6;" horiz-adv-x="2072" d="M51 0l760 1434h1139v-367h-545v-172h457v-363h-457v-190h545v-342h-955v203h-381l-98 -203h-465zM780 545h215v442z" />
<glyph unicode="&#xc7;" horiz-adv-x="1388" d="M92 725q0 178 57.5 321t159 235t238 140.5t297.5 48.5q141 0 276 -37.5t213 -101.5l-186 -325q-57 41 -133.5 63.5t-149.5 22.5q-145 0 -239.5 -96t-94.5 -271q0 -183 96.5 -283t235.5 -100q159 0 299 113l197 -295q-79 -80 -214 -135.5t-296 -61.5l-35 -72 q107 16 163 -29.5t56 -123.5q0 -109 -85 -178t-216 -80l-65 149q86 17 115.5 41t29.5 54q0 14 -9 24t-22 10q-19 0 -39 -14l-118 104l59 127q-122 22 -228 82.5t-187.5 153.5t-128 225.5t-46.5 288.5z" />
<glyph unicode="&#xc8;" horiz-adv-x="1255" d="M113 0v1434h1020v-349h-611v-192h512v-348h-512v-197h611v-348h-1020zM172 1901h418l115 -330h-207z" />
<glyph unicode="&#xc9;" horiz-adv-x="1255" d="M113 0v1434h1020v-349h-611v-192h512v-348h-512v-197h611v-348h-1020zM506 1571l115 330h417l-325 -330h-207z" />
<glyph unicode="&#xca;" horiz-adv-x="1255" d="M113 0v1434h1020v-349h-611v-192h512v-348h-512v-197h611v-348h-1020zM244 1583l250 318h225l239 -318h-270l-82 115l-80 -115h-282z" />
<glyph unicode="&#xcb;" horiz-adv-x="1255" d="M113 0v1434h1020v-349h-611v-192h512v-348h-512v-197h611v-348h-1020zM231 1735q0 86 46 126t118 40q66 0 110 -40t44 -126q0 -82 -45 -122t-109 -40q-70 0 -117 40.5t-47 121.5zM666 1735q0 86 45.5 126t115.5 40q67 0 110.5 -40t43.5 -126q0 -81 -44 -121.5t-110 -40.5 q-69 0 -115 40.5t-46 121.5z" />
<glyph unicode="&#xcc;" horiz-adv-x="684" d="M-96 1901h418l114 -330h-207zM137 0v1434h410v-1434h-410z" />
<glyph unicode="&#xcd;" horiz-adv-x="684" d="M137 0v1434h410v-1434h-410zM195 1581l98 320h407l-272 -320h-233z" />
<glyph unicode="&#xce;" horiz-adv-x="684" d="M-25 1583l250 318h226l239 -318h-270l-82 115l-80 -115h-283zM137 0v1434h410v-1434h-410z" />
<glyph unicode="&#xcf;" horiz-adv-x="684" d="M-37 1735q0 86 46 126t118 40q66 0 110 -40t44 -126q0 -82 -45 -122t-109 -40q-70 0 -117 40.5t-47 121.5zM137 0v1434h410v-1434h-410zM397 1735q0 86 46 126t116 40q67 0 110.5 -40t43.5 -126q0 -81 -44 -121.5t-110 -40.5q-69 0 -115.5 40.5t-46.5 121.5z" />
<glyph unicode="&#xd0;" horiz-adv-x="1667" d="M113 582v266h170v586h497q232 0 411.5 -85t281.5 -247.5t102 -378.5q0 -218 -101.5 -383t-281.5 -252.5t-412 -87.5h-497v582h-170zM700 367h103q332 0 332 356q0 183 -85 260.5t-247 77.5h-103v-213h222v-266h-222v-215z" />
<glyph unicode="&#xd1;" horiz-adv-x="1529" d="M113 0v1434h344l542 -738v738h418v-1434h-344l-551 723v-723h-409zM377 1702q24 114 91 169.5t136 55.5q56 0 106.5 -21t87 -42t58.5 -21q30 0 53 25.5t45 81.5l205 -82q-29 -114 -90.5 -181t-148.5 -67q-48 0 -96 20t-88.5 40t-71.5 20q-37 0 -61.5 -25t-39.5 -76z" />
<glyph unicode="&#xd2;" horiz-adv-x="1675" d="M92 733q0 150 41 273.5t111.5 208.5t166.5 143t203 85t224 27t224 -27t202.5 -85t166 -143t111.5 -208.5t41 -273.5q0 -153 -41 -281.5t-111.5 -217.5t-166 -151t-203 -91t-223.5 -29t-224 29t-203.5 91t-166 151t-111.5 217.5t-41 281.5zM399 1901h418l115 -330h-207z M532 727q0 -186 83 -285.5t223 -99.5t222.5 99.5t82.5 285.5q0 183 -81.5 274t-223.5 91t-224 -91t-82 -274z" />
<glyph unicode="&#xd3;" horiz-adv-x="1675" d="M92 733q0 150 41 273.5t111.5 208.5t166.5 143t203 85t224 27t224 -27t202.5 -85t166 -143t111.5 -208.5t41 -273.5q0 -153 -41 -281.5t-111.5 -217.5t-166 -151t-203 -91t-223.5 -29t-224 29t-203.5 91t-166 151t-111.5 217.5t-41 281.5zM532 727q0 -186 83 -285.5 t223 -99.5t222.5 99.5t82.5 285.5q0 183 -81.5 274t-223.5 91t-224 -91t-82 -274zM733 1571l115 330h418l-326 -330h-207z" />
<glyph unicode="&#xd4;" horiz-adv-x="1675" d="M92 733q0 150 41 273.5t111.5 208.5t166.5 143t203 85t224 27t224 -27t202.5 -85t166 -143t111.5 -208.5t41 -273.5q0 -153 -41 -281.5t-111.5 -217.5t-166 -151t-203 -91t-223.5 -29t-224 29t-203.5 91t-166 151t-111.5 217.5t-41 281.5zM471 1583l250 318h225l240 -318 h-271l-81 115l-80 -115h-283zM532 727q0 -186 83 -285.5t223 -99.5t222.5 99.5t82.5 285.5q0 183 -81.5 274t-223.5 91t-224 -91t-82 -274z" />
<glyph unicode="&#xd5;" horiz-adv-x="1675" d="M92 733q0 150 41 273.5t111.5 208.5t166.5 143t203 85t224 27t224 -27t202.5 -85t166 -143t111.5 -208.5t41 -273.5q0 -153 -41 -281.5t-111.5 -217.5t-166 -151t-203 -91t-223.5 -29t-224 29t-203.5 91t-166 151t-111.5 217.5t-41 281.5zM446 1675q24 114 91.5 170 t136.5 56q56 0 106.5 -21t87 -42t58.5 -21q30 0 53 25t45 81l205 -82q-29 -114 -91 -181t-149 -67q-48 0 -96 20t-88.5 40t-71.5 20q-37 0 -61 -24.5t-39 -75.5zM532 727q0 -186 83 -285.5t223 -99.5t222.5 99.5t82.5 285.5q0 183 -81.5 274t-223.5 91t-224 -91t-82 -274z " />
<glyph unicode="&#xd6;" horiz-adv-x="1675" d="M92 733q0 150 41 273.5t111.5 208.5t166.5 143t203 85t224 27t224 -27t202.5 -85t166 -143t111.5 -208.5t41 -273.5q0 -153 -41 -281.5t-111.5 -217.5t-166 -151t-203 -91t-223.5 -29t-224 29t-203.5 91t-166 151t-111.5 217.5t-41 281.5zM459 1735q0 86 46 126t118 40 q66 0 109.5 -40t43.5 -126q0 -82 -44.5 -122t-108.5 -40q-70 0 -117 40.5t-47 121.5zM532 727q0 -186 83 -285.5t223 -99.5t222.5 99.5t82.5 285.5q0 183 -81.5 274t-223.5 91t-224 -91t-82 -274zM893 1735q0 86 46 126t116 40q67 0 110 -40t43 -126q0 -81 -43.5 -121.5 t-109.5 -40.5q-69 0 -115.5 40.5t-46.5 121.5z" />
<glyph unicode="&#xd7;" horiz-adv-x="1183" d="M45 180l371 361l-371 360l176 174l371 -362l373 362l174 -172l-371 -360l371 -363l-176 -172l-371 363l-371 -361z" />
<glyph unicode="&#xd8;" horiz-adv-x="1599" d="M92 733q0 150 41 273.5t111.5 208.5t166.5 143t203 85t224 27q139 0 254 -36l131 231l196 -100l-125 -226q135 -91 212 -243t77 -363q0 -153 -41 -281.5t-111.5 -217.5t-166 -151t-203 -91t-223.5 -29q-155 0 -289 51l-152 -272l-192 123l147 260q-122 98 -191 250.5 t-69 357.5zM532 727q0 -124 39 -213l326 573q-50 5 -59 5q-142 0 -224 -91t-82 -274zM741 356q43 -14 97 -14q140 0 222.5 99.5t82.5 285.5q0 153 -58 242z" />
<glyph unicode="&#xd9;" horiz-adv-x="1454" d="M113 522v912h409v-893q0 -100 52 -151.5t153 -51.5q99 0 152 52t53 151v893h409v-912q0 -120 -31.5 -215.5t-87 -159t-134 -105.5t-168 -60.5t-193.5 -18.5t-193.5 18.5t-168 60.5t-134 105.5t-87 159t-31.5 215.5zM281 1901h417l115 -330h-207z" />
<glyph unicode="&#xda;" horiz-adv-x="1454" d="M113 522v912h409v-893q0 -100 52 -151.5t153 -51.5q99 0 152 52t53 151v893h409v-912q0 -120 -31.5 -215.5t-87 -159t-134 -105.5t-168 -60.5t-193.5 -18.5t-193.5 18.5t-168 60.5t-134 105.5t-87 159t-31.5 215.5zM614 1571l115 330h418l-326 -330h-207z" />
<glyph unicode="&#xdb;" horiz-adv-x="1454" d="M113 522v912h409v-893q0 -100 52 -151.5t153 -51.5q99 0 152 52t53 151v893h409v-912q0 -120 -31.5 -215.5t-87 -159t-134 -105.5t-168 -60.5t-193.5 -18.5t-193.5 18.5t-168 60.5t-134 105.5t-87 159t-31.5 215.5zM352 1583l250 318h225l240 -318h-270l-82 115l-80 -115 h-283z" />
<glyph unicode="&#xdc;" horiz-adv-x="1454" d="M113 522v912h409v-893q0 -100 52 -151.5t153 -51.5q99 0 152 52t53 151v893h409v-912q0 -120 -31.5 -215.5t-87 -159t-134 -105.5t-168 -60.5t-193.5 -18.5t-193.5 18.5t-168 60.5t-134 105.5t-87 159t-31.5 215.5zM340 1735q0 86 46 126t118 40q66 0 109.5 -40 t43.5 -126q0 -82 -44.5 -122t-108.5 -40q-70 0 -117 40.5t-47 121.5zM774 1735q0 86 46 126t116 40q67 0 110.5 -40t43.5 -126q0 -81 -44 -121.5t-110 -40.5q-69 0 -115.5 40.5t-46.5 121.5z" />
<glyph unicode="&#xdd;" horiz-adv-x="1361" d="M-20 1434h471l243 -465l250 465h438l-497 -867v-567h-410v571zM608 1571l115 330h418l-326 -330h-207z" />
<glyph unicode="&#xde;" horiz-adv-x="1251" d="M113 0v1434h417v-201h170q105 0 192 -27.5t146 -74.5t99 -110.5t58.5 -133.5t18.5 -146q0 -213 -135 -346t-381 -133h-168v-262h-417zM530 610h121q40 0 82.5 33t42.5 98q0 57 -35.5 92t-89.5 35h-121v-258z" />
<glyph unicode="&#xdf;" horiz-adv-x="1417" d="M102 0v1112q0 104 29 185t90 142.5t165.5 94.5t246.5 33q268 0 414.5 -107.5t146.5 -314.5q0 -67 -18.5 -122.5t-44.5 -89t-52 -58.5t-44.5 -44.5t-18.5 -33.5q0 -17 24.5 -34.5t61 -33.5t79.5 -44t79.5 -62.5t61 -93.5t24.5 -132q0 -209 -131 -315.5t-369 -106.5 q-163 0 -258 35l53 277q108 -15 152 -15q72 0 114.5 36.5t42.5 90.5q0 53 -32 89t-77 57.5t-90.5 45.5t-77.5 68.5t-32 110.5q0 45 16.5 80.5t39.5 59t46 45.5t39.5 52t16.5 66q0 150 -152 150q-65 0 -103 -39t-38 -123v-1061h-404z" />
<glyph unicode="&#xe0;" horiz-adv-x="1224" d="M76 324q0 156 114.5 238.5t305.5 82.5q106 0 184 -16v26q0 83 -39.5 114.5t-118.5 31.5q-78 0 -148.5 -21.5t-115.5 -60.5l-141 237q87 75 213.5 114.5t242.5 39.5q250 0 373 -109t123 -305v-352q0 -72 49 -72h64l-25 -254q-60 -47 -194 -47q-161 0 -218 105 q-30 -24 -50 -38.5t-58 -34.5t-84.5 -30t-101.5 -10q-77 0 -143.5 22t-119 65t-82.5 113.5t-30 160.5zM158 1559h417l115 -330h-207zM432 336q0 -51 29.5 -73.5t70.5 -22.5q109 0 154 86v84q-53 20 -141 20q-113 0 -113 -94z" />
<glyph unicode="&#xe1;" horiz-adv-x="1224" d="M76 324q0 156 114.5 238.5t305.5 82.5q106 0 184 -16v26q0 83 -39.5 114.5t-118.5 31.5q-78 0 -148.5 -21.5t-115.5 -60.5l-141 237q87 75 213.5 114.5t242.5 39.5q250 0 373 -109t123 -305v-352q0 -72 49 -72h64l-25 -254q-60 -47 -194 -47q-161 0 -218 105 q-30 -24 -50 -38.5t-58 -34.5t-84.5 -30t-101.5 -10q-77 0 -143.5 22t-119 65t-82.5 113.5t-30 160.5zM432 336q0 -51 29.5 -73.5t70.5 -22.5q109 0 154 86v84q-53 20 -141 20q-113 0 -113 -94zM492 1229l114 330h418l-326 -330h-206z" />
<glyph unicode="&#xe2;" horiz-adv-x="1224" d="M76 324q0 156 114.5 238.5t305.5 82.5q106 0 184 -16v26q0 83 -39.5 114.5t-118.5 31.5q-78 0 -148.5 -21.5t-115.5 -60.5l-141 237q87 75 213.5 114.5t242.5 39.5q250 0 373 -109t123 -305v-352q0 -72 49 -72h64l-25 -254q-60 -47 -194 -47q-161 0 -218 105 q-30 -24 -50 -38.5t-58 -34.5t-84.5 -30t-101.5 -10q-77 0 -143.5 22t-119 65t-82.5 113.5t-30 160.5zM229 1241l250 318h226l239 -318h-270l-82 115l-80 -115h-283zM432 336q0 -51 29.5 -73.5t70.5 -22.5q109 0 154 86v84q-53 20 -141 20q-113 0 -113 -94z" />
<glyph unicode="&#xe3;" horiz-adv-x="1224" d="M76 324q0 156 114.5 238.5t305.5 82.5q106 0 184 -16v26q0 83 -39.5 114.5t-118.5 31.5q-78 0 -148.5 -21.5t-115.5 -60.5l-141 237q87 75 213.5 114.5t242.5 39.5q250 0 373 -109t123 -305v-352q0 -72 49 -72h64l-25 -254q-60 -47 -194 -47q-161 0 -218 105 q-30 -24 -50 -38.5t-58 -34.5t-84.5 -30t-101.5 -10q-77 0 -143.5 22t-119 65t-82.5 113.5t-30 160.5zM205 1333q12 60 39 105.5t59.5 71t65 37.5t63.5 12q56 0 106.5 -21t87 -42t58.5 -21q30 0 53 25t45 81l205 -82q-29 -114 -90.5 -181t-148.5 -67q-48 0 -96 20t-88.5 40 t-71.5 20q-71 0 -101 -100zM432 336q0 -51 29.5 -73.5t70.5 -22.5q109 0 154 86v84q-53 20 -141 20q-113 0 -113 -94z" />
<glyph unicode="&#xe4;" horiz-adv-x="1224" d="M76 324q0 156 114.5 238.5t305.5 82.5q106 0 184 -16v26q0 83 -39.5 114.5t-118.5 31.5q-78 0 -148.5 -21.5t-115.5 -60.5l-141 237q87 75 213.5 114.5t242.5 39.5q250 0 373 -109t123 -305v-352q0 -72 49 -72h64l-25 -254q-60 -47 -194 -47q-161 0 -218 105 q-30 -24 -50 -38.5t-58 -34.5t-84.5 -30t-101.5 -10q-77 0 -143.5 22t-119 65t-82.5 113.5t-30 160.5zM217 1393q0 86 46 126t118 40q66 0 110 -40t44 -126q0 -82 -45 -122t-109 -40q-70 0 -117 40.5t-47 121.5zM432 336q0 -51 29.5 -73.5t70.5 -22.5q109 0 154 86v84 q-53 20 -141 20q-113 0 -113 -94zM651 1393q0 86 46 126t116 40q67 0 110.5 -40t43.5 -126q0 -81 -44 -121.5t-110 -40.5q-69 0 -115.5 40.5t-46.5 121.5z" />
<glyph unicode="&#xe5;" horiz-adv-x="1224" d="M76 324q0 156 114.5 238.5t305.5 82.5q106 0 184 -16v26q0 83 -39.5 114.5t-118.5 31.5q-78 0 -148.5 -21.5t-115.5 -60.5l-141 237q87 75 213.5 114.5t242.5 39.5q250 0 373 -109t123 -305v-352q0 -72 49 -72h64l-25 -254q-60 -47 -194 -47q-161 0 -218 105 q-30 -24 -50 -38.5t-58 -34.5t-84.5 -30t-101.5 -10q-77 0 -143.5 22t-119 65t-82.5 113.5t-30 160.5zM399 1389q0 77 53 130.5t144 53.5t144 -53.5t53 -130.5q0 -78 -53 -132.5t-144 -54.5t-144 54.5t-53 132.5zM432 336q0 -51 29.5 -73.5t70.5 -22.5q109 0 154 86v84 q-53 20 -141 20q-113 0 -113 -94zM522 1389q0 -30 18.5 -52t55.5 -22q36 0 55 22.5t19 51.5t-19 50t-55 21q-37 0 -55.5 -21t-18.5 -50z" />
<glyph unicode="&#xe6;" horiz-adv-x="1808" d="M76 324q0 156 116.5 238.5t309.5 82.5q110 0 188 -16v49q0 59 -41.5 84.5t-120.5 25.5q-77 0 -149.5 -19t-118.5 -50l-141 237q186 142 448 142q123 0 211.5 -36.5t143.5 -127.5q73 92 167.5 128t215.5 36q139 0 244.5 -65.5t158.5 -169.5t53 -228q0 -115 -20 -215h-643 q22 -75 77 -106t148 -31q150 0 252 59l131 -213q-33 -44 -86 -75.5t-112.5 -48t-114 -23.5t-105.5 -7q-118 0 -221.5 45t-173.5 132q-169 -177 -438 -177q-105 0 -188.5 37t-137 117.5t-53.5 194.5zM438 340q0 -39 29 -58.5t70 -19.5q48 0 91.5 17t67.5 47v84 q-74 12 -139 12q-55 0 -87 -20.5t-32 -61.5zM1092 651h311q-11 88 -48 121t-104 33q-127 0 -159 -154z" />
<glyph unicode="&#xe7;" horiz-adv-x="1091" d="M72 541q0 133 44.5 242.5t120 179.5t172.5 108.5t205 38.5q129 0 225.5 -31t178.5 -98l-137 -270q-84 67 -203 67q-95 0 -156 -61.5t-61 -173.5q0 -111 60.5 -178.5t152.5 -67.5q124 0 215 78l155 -252q-142 -148 -376 -160l-35 -72q107 16 163 -29.5t56 -123.5 q0 -109 -85 -178t-216 -80l-66 149q86 17 116 41t30 54q0 14 -9 24t-22 10q-19 0 -39 -14l-119 104l60 129q-188 40 -309 190t-121 374z" />
<glyph unicode="&#xe8;" horiz-adv-x="1165" d="M72 532q0 164 66.5 295.5t188.5 207t279 75.5q126 0 226 -41.5t161 -112t93 -158t32 -184.5q0 -103 -20 -190h-637q41 -154 211 -154q138 0 252 88l137 -254q-174 -141 -445 -141q-117 0 -215.5 35.5t-172 104.5t-115 179t-41.5 250zM170 1540h418l114 -330h-206z M457 657h303q-3 81 -41 120.5t-105 39.5q-65 0 -104 -36.5t-53 -123.5z" />
<glyph unicode="&#xe9;" horiz-adv-x="1165" d="M72 532q0 164 66.5 295.5t188.5 207t279 75.5q126 0 226 -41.5t161 -112t93 -158t32 -184.5q0 -103 -20 -190h-637q41 -154 211 -154q138 0 252 88l137 -254q-174 -141 -445 -141q-117 0 -215.5 35.5t-172 104.5t-115 179t-41.5 250zM457 657h303q-3 81 -41 120.5 t-105 39.5q-65 0 -104 -36.5t-53 -123.5zM504 1210l114 330h418l-325 -330h-207z" />
<glyph unicode="&#xea;" horiz-adv-x="1165" d="M72 532q0 164 66.5 295.5t188.5 207t279 75.5q126 0 226 -41.5t161 -112t93 -158t32 -184.5q0 -103 -20 -190h-637q41 -154 211 -154q138 0 252 88l137 -254q-174 -141 -445 -141q-117 0 -215.5 35.5t-172 104.5t-115 179t-41.5 250zM242 1223l250 317h225l239 -317h-270 l-82 114l-80 -114h-282zM457 657h303q-3 81 -41 120.5t-105 39.5q-65 0 -104 -36.5t-53 -123.5z" />
<glyph unicode="&#xeb;" horiz-adv-x="1165" d="M72 532q0 164 66.5 295.5t188.5 207t279 75.5q126 0 226 -41.5t161 -112t93 -158t32 -184.5q0 -103 -20 -190h-637q41 -154 211 -154q138 0 252 88l137 -254q-174 -141 -445 -141q-117 0 -215.5 35.5t-172 104.5t-115 179t-41.5 250zM229 1374q0 86 46 126t118 40 q66 0 110 -40t44 -126q0 -82 -45 -122t-109 -40q-70 0 -117 40.5t-47 121.5zM457 657h303q-3 81 -41 120.5t-105 39.5q-65 0 -104 -36.5t-53 -123.5zM664 1374q0 86 45.5 126t115.5 40q67 0 110.5 -40t43.5 -126q0 -81 -44 -121.5t-110 -40.5q-69 0 -115 40.5t-46 121.5z " />
<glyph unicode="&#xec;" horiz-adv-x="634" d="M-121 1540h418l115 -330h-207zM123 0v1073h389v-1073h-389z" />
<glyph unicode="&#xed;" horiz-adv-x="634" d="M123 0v1073h389v-1073h-389zM213 1210l115 330h417l-325 -330h-207z" />
<glyph unicode="&#xee;" horiz-adv-x="634" d="M-49 1223l250 317h225l240 -317h-271l-82 114l-80 -114h-282zM123 0v1073h389v-1073h-389z" />
<glyph unicode="&#xef;" horiz-adv-x="634" d="M-61 1374q0 86 46 126t117 40q66 0 110 -40t44 -126q0 -82 -45 -122t-109 -40q-70 0 -116.5 40.5t-46.5 121.5zM123 0v1073h389v-1073h-389zM373 1374q0 86 46 126t116 40q67 0 110 -40t43 -126q0 -81 -43.5 -121.5t-109.5 -40.5q-69 0 -115.5 40.5t-46.5 121.5z" />
<glyph unicode="&#xf0;" horiz-adv-x="1275" d="M72 557q0 134 39 241.5t106.5 174.5t153 102t182.5 35q142 0 246 -94q-41 112 -135 203l-164 -74l-68 119l107 49q-55 30 -101 51l228 199q97 -50 180 -111l172 78l65 -123l-122 -55q133 -138 188 -310t55 -380q0 -334 -149 -516.5t-422 -182.5q-119 0 -219 36 t-177.5 106.5t-121 186t-43.5 265.5zM467 530q0 -106 42 -162.5t126 -56.5t129 57t45 162t-45 162.5t-129 57.5q-83 0 -125.5 -57t-42.5 -163z" />
<glyph unicode="&#xf1;" horiz-adv-x="1275" d="M102 0v1073h260l62 -151h12q76 101 162 144.5t197 43.5q174 0 276.5 -100.5t102.5 -278.5v-731h-390v600q0 73 -25.5 104t-74.5 31q-91 0 -192 -127v-608h-390zM242 1333q12 60 39 105.5t59.5 71t65 37.5t63.5 12q56 0 106.5 -21t87 -42t58.5 -21q30 0 53 25t45 81 l205 -82q-29 -114 -91 -181t-149 -67q-48 0 -96 20t-88.5 40t-71.5 20q-37 0 -61 -24.5t-39 -75.5z" />
<glyph unicode="&#xf2;" d="M72 537q0 116 32 212t87 162t129 111.5t157 66.5t172 21t172 -21t157 -66.5t129 -111.5t87.5 -162t32.5 -212q0 -143 -49 -256t-131.5 -180.5t-184 -102.5t-213.5 -35q-89 0 -172 21t-157 67t-129 112t-87 162t-32 212zM211 1540h418l114 -330h-206zM467 537 q0 -232 182 -232t182 232q0 231 -182 231t-182 -231z" />
<glyph unicode="&#xf3;" d="M72 537q0 116 32 212t87 162t129 111.5t157 66.5t172 21t172 -21t157 -66.5t129 -111.5t87.5 -162t32.5 -212q0 -143 -49 -256t-131.5 -180.5t-184 -102.5t-213.5 -35q-89 0 -172 21t-157 67t-129 112t-87 162t-32 212zM467 537q0 -232 182 -232t182 232q0 231 -182 231 t-182 -231zM545 1210l114 330h418l-325 -330h-207z" />
<glyph unicode="&#xf4;" d="M72 537q0 116 32 212t87 162t129 111.5t157 66.5t172 21t172 -21t157 -66.5t129 -111.5t87.5 -162t32.5 -212q0 -143 -49 -256t-131.5 -180.5t-184 -102.5t-213.5 -35q-89 0 -172 21t-157 67t-129 112t-87 162t-32 212zM283 1223l249 317h226l239 -317h-270l-82 114 l-80 -114h-282zM467 537q0 -232 182 -232t182 232q0 231 -182 231t-182 -231z" />
<glyph unicode="&#xf5;" d="M72 537q0 116 32 212t87 162t129 111.5t157 66.5t172 21t172 -21t157 -66.5t129 -111.5t87.5 -162t32.5 -212q0 -143 -49 -256t-131.5 -180.5t-184 -102.5t-213.5 -35q-89 0 -172 21t-157 67t-129 112t-87 162t-32 212zM258 1315q24 114 91 169.5t136 55.5 q56 0 106.5 -21t87 -42t58.5 -21q30 0 53.5 25.5t45.5 81.5l204 -82q-29 -114 -90.5 -181t-148.5 -67q-48 0 -96 20t-88.5 40t-71.5 20q-37 0 -61.5 -25t-39.5 -76zM467 537q0 -232 182 -232t182 232q0 231 -182 231t-182 -231z" />
<glyph unicode="&#xf6;" d="M72 537q0 116 32 212t87 162t129 111.5t157 66.5t172 21t172 -21t157 -66.5t129 -111.5t87.5 -162t32.5 -212q0 -143 -49 -256t-131.5 -180.5t-184 -102.5t-213.5 -35q-89 0 -172 21t-157 67t-129 112t-87 162t-32 212zM270 1374q0 86 46 126t118 40q66 0 110 -40 t44 -126q0 -82 -45 -122t-109 -40q-70 0 -117 40.5t-47 121.5zM467 537q0 -232 182 -232t182 232q0 231 -182 231t-182 -231zM705 1374q0 86 45.5 126t115.5 40q67 0 110.5 -40t43.5 -126q0 -81 -44 -121.5t-110 -40.5q-69 0 -115 40.5t-46 121.5z" />
<glyph unicode="&#xf7;" horiz-adv-x="739" d="M-53 438v205h925v-205h-925zM240 178q0 75 45.5 114.5t111.5 39.5q65 0 108.5 -39.5t43.5 -114.5q0 -73 -44 -113t-108 -40q-66 0 -111.5 40t-45.5 113zM240 920q0 75 45 114t112 39q65 0 108.5 -39t43.5 -114q0 -73 -44 -113.5t-108 -40.5q-66 0 -111.5 40.5 t-45.5 113.5z" />
<glyph unicode="&#xf8;" d="M72 537q0 116 32 212t87 162t129 111.5t157 66.5t172 21q97 0 199 -29l106 211l172 -86l-120 -200q103 -73 162 -190.5t59 -278.5q0 -143 -49 -256t-131.5 -180.5t-184 -102.5t-213.5 -35q-114 0 -209 33l-116 -219l-164 104l123 195q-99 73 -155 189t-56 272zM467 537 q0 -73 18 -125l199 354q-10 2 -35 2q-182 0 -182 -231zM608 309q24 -4 41 -4q182 0 182 232q0 76 -22 131z" />
<glyph unicode="&#xf9;" horiz-adv-x="1259" d="M102 352v721h385v-629q0 -67 29 -93.5t86 -26.5q115 0 168 133v616h387v-1073h-258l-61 133q-116 -158 -334 -158q-194 0 -298 103t-104 274zM197 1540h417l115 -330h-207z" />
<glyph unicode="&#xfa;" horiz-adv-x="1259" d="M102 352v721h385v-629q0 -67 29 -93.5t86 -26.5q115 0 168 133v616h387v-1073h-258l-61 133q-116 -158 -334 -158q-194 0 -298 103t-104 274zM530 1210l115 330h418l-326 -330h-207z" />
<glyph unicode="&#xfb;" horiz-adv-x="1259" d="M102 352v721h385v-629q0 -67 29 -93.5t86 -26.5q115 0 168 133v616h387v-1073h-258l-61 133q-116 -158 -334 -158q-194 0 -298 103t-104 274zM268 1223l250 317h225l240 -317h-270l-82 114l-80 -114h-283z" />
<glyph unicode="&#xfc;" horiz-adv-x="1259" d="M102 352v721h385v-629q0 -67 29 -93.5t86 -26.5q115 0 168 133v616h387v-1073h-258l-61 133q-116 -158 -334 -158q-194 0 -298 103t-104 274zM256 1374q0 86 46 126t118 40q66 0 109.5 -40t43.5 -126q0 -82 -44.5 -122t-108.5 -40q-70 0 -117 40.5t-47 121.5zM690 1374 q0 86 46 126t116 40q67 0 110.5 -40t43.5 -126q0 -81 -44 -121.5t-110 -40.5q-69 0 -115.5 40.5t-46.5 121.5z" />
<glyph unicode="&#xfd;" horiz-adv-x="1296" d="M25 1077h405l211 -671l190 671h424l-399 -1149q-69 -198 -179 -286t-284 -88q-79 0 -145 8t-100 16.5t-87 24.5l68 288q99 -30 188 -30q88 0 125 80l11 22zM522 1229l115 330h418l-326 -330h-207z" />
<glyph unicode="&#xfe;" horiz-adv-x="1259" d="M102 -444v1878h387v-428h5q109 92 251 92q87 0 166 -35t141 -101.5t99 -171.5t37 -235q0 -266 -143 -423t-363 -157q-108 0 -190 23v-442h-390zM492 307q36 -20 100 -20q93 0 147 61t54 184q0 108 -43 166t-107 58q-68 0 -151 -74v-375z" />
<glyph unicode="&#xff;" horiz-adv-x="1296" d="M25 1077h405l211 -671l190 671h424l-399 -1149q-69 -198 -179 -286t-284 -88q-79 0 -145 8t-100 16.5t-87 24.5l68 288q99 -30 188 -30q88 0 125 80l11 22zM248 1393q0 86 46 126t118 40q66 0 109.5 -40t43.5 -126q0 -82 -44.5 -122t-108.5 -40q-70 0 -117 40.5 t-47 121.5zM682 1393q0 86 46 126t116 40q67 0 110 -40t43 -126q0 -81 -43.5 -121.5t-109.5 -40.5q-69 0 -115.5 40.5t-46.5 121.5z" />
<glyph unicode="&#x152;" horiz-adv-x="1921" d="M92 727q0 147 42.5 266.5t116 200.5t175.5 136t217.5 79.5t245.5 24.5h909v-373h-541v-174h486v-328h-486v-186h541v-373h-901q-131 0 -249 27t-220 84.5t-176.5 141.5t-117 205.5t-42.5 268.5zM522 727q0 -176 84 -267.5t230 -94.5v722q-146 -3 -230 -93.5t-84 -266.5z " />
<glyph unicode="&#x153;" horiz-adv-x="1925" d="M72 537q0 139 46 249t122.5 176.5t169.5 101t194 34.5q266 0 395 -174q129 174 385 174q119 0 214.5 -38t155.5 -103t92 -149t32 -179q0 -115 -20 -215h-631q23 -71 75.5 -101t143.5 -30q147 0 246 59l131 -213q-32 -44 -84.5 -75.5t-112 -48t-113 -23.5t-104.5 -7 q-271 0 -414 177q-134 -177 -391 -177q-101 0 -194 34.5t-169.5 101t-122.5 177t-46 249.5zM467 537q0 -106 42.5 -163t125.5 -57q84 0 129 57.5t45 162.5t-45 162t-129 57t-126 -56.5t-42 -162.5zM1221 668h299q-20 137 -148 137q-117 0 -151 -137z" />
<glyph unicode="&#x178;" horiz-adv-x="1361" d="M-20 1434h471l243 -465l250 465h438l-497 -867v-567h-410v571zM334 1735q0 86 46 126t118 40q66 0 109.5 -40t43.5 -126q0 -82 -44.5 -122t-108.5 -40q-70 0 -117 40.5t-47 121.5zM768 1735q0 86 46 126t116 40q67 0 110 -40t43 -126q0 -81 -43.5 -121.5t-109.5 -40.5 q-69 0 -115.5 40.5t-46.5 121.5z" />
<glyph unicode="&#x2c6;" horiz-adv-x="819" d="M53 1223l250 317h225l240 -317h-270l-82 114l-80 -114h-283z" />
<glyph unicode="&#x2dc;" horiz-adv-x="819" d="M29 1315q24 114 91 169.5t136 55.5q56 0 106.5 -21t87 -42t58.5 -21q30 0 53 25.5t45 81.5l205 -82q-29 -114 -91 -181t-149 -67q-48 0 -96 20t-88.5 40t-71.5 20q-37 0 -61 -25t-39 -76z" />
<glyph unicode="&#x2000;" horiz-adv-x="975" />
<glyph unicode="&#x2001;" horiz-adv-x="1950" />
<glyph unicode="&#x2002;" horiz-adv-x="975" />
<glyph unicode="&#x2003;" horiz-adv-x="1950" />
<glyph unicode="&#x2004;" horiz-adv-x="650" />
<glyph unicode="&#x2005;" horiz-adv-x="487" />
<glyph unicode="&#x2006;" horiz-adv-x="325" />
<glyph unicode="&#x2007;" horiz-adv-x="325" />
<glyph unicode="&#x2008;" horiz-adv-x="243" />
<glyph unicode="&#x2009;" horiz-adv-x="390" />
<glyph unicode="&#x200a;" horiz-adv-x="108" />
<glyph unicode="&#x2010;" horiz-adv-x="933" d="M102 471v315h729v-315h-729z" />
<glyph unicode="&#x2011;" horiz-adv-x="933" d="M102 471v315h729v-315h-729z" />
<glyph unicode="&#x2012;" horiz-adv-x="933" d="M102 471v315h729v-315h-729z" />
<glyph unicode="&#x2013;" horiz-adv-x="1157" d="M98 369v340h963v-340h-963z" />
<glyph unicode="&#x2014;" horiz-adv-x="1798" d="M152 369v340h1497v-340h-1497z" />
<glyph unicode="&#x2018;" horiz-adv-x="581" d="M41 1069q0 227 233 416l183 -64q-65 -65 -89 -101t-36 -77q83 -13 125.5 -67.5t42.5 -128.5q0 -119 -63 -179.5t-165 -60.5q-93 0 -162 68.5t-69 193.5z" />
<glyph unicode="&#x2019;" horiz-adv-x="591" d="M102 1245q0 119 64 179.5t164 60.5q95 0 163 -68t68 -194q0 -230 -229 -416l-185 65q65 65 89 102t36 79q-84 13 -127 66t-43 126z" />
<glyph unicode="&#x201a;" horiz-adv-x="581" d="M82 172q0 106 62.5 166.5t158.5 60.5q100 0 169 -68t69 -194q0 -279 -254 -454l-168 43q116 116 149 241q-74 0 -130 50.5t-56 154.5z" />
<glyph unicode="&#x201c;" horiz-adv-x="1114" d="M82 1010q0 279 254 454l168 -43q-117 -117 -150 -241q74 0 130.5 -50.5t56.5 -154.5q0 -105 -63 -166t-159 -61q-99 0 -168 68t-69 194zM614 1010q0 279 254 454l168 -43q-116 -116 -149 -241q74 0 130 -50.5t56 -154.5q0 -106 -62.5 -166.5t-158.5 -60.5q-100 0 -169 68 t-69 194z" />
<glyph unicode="&#x201d;" horiz-adv-x="1114" d="M41 1237q0 106 62.5 166.5t158.5 60.5q100 0 169 -68t69 -194q0 -279 -254 -454l-168 43q116 116 149 241q-74 0 -130 50.5t-56 154.5zM573 1237q0 105 63 166t159 61q99 0 168 -68t69 -194q0 -279 -254 -454l-168 43q117 117 150 241q-74 0 -130.5 50.5t-56.5 154.5z " />
<glyph unicode="&#x201e;" horiz-adv-x="1114" d="M41 172q0 106 62.5 166.5t158.5 60.5q100 0 169 -68t69 -194q0 -279 -254 -454l-168 43q116 116 149 241q-74 0 -130 50.5t-56 154.5zM573 172q0 105 63 166t159 61q99 0 168 -68t69 -194q0 -279 -254 -454l-168 43q117 117 150 241q-74 0 -130.5 50.5t-56.5 154.5z" />
<glyph unicode="&#x2022;" horiz-adv-x="397" d="M90 580q0 77 42.5 115t103.5 38q64 0 109.5 -38t45.5 -115q0 -71 -46.5 -110.5t-108.5 -39.5q-59 0 -102.5 39.5t-43.5 110.5z" />
<glyph unicode="&#x2026;" horiz-adv-x="1843" d="M129 190q0 114 67 171t160 57t159.5 -57t66.5 -171q0 -116 -66.5 -174.5t-159.5 -58.5t-160 58.5t-67 174.5zM694 190q0 113 68.5 170.5t157.5 57.5q93 0 159 -57t66 -171q0 -116 -66 -174.5t-159 -58.5q-41 0 -79.5 13.5t-72 40.5t-54 73t-20.5 106zM1257 190 q0 59 20.5 104.5t54.5 71.5t73 39t80 13q94 0 161.5 -57t67.5 -171q0 -116 -68 -174.5t-161 -58.5q-41 0 -80 13.5t-73 40.5t-54.5 73.5t-20.5 105.5z" />
<glyph unicode="&#x202f;" horiz-adv-x="390" />
<glyph unicode="&#x2039;" horiz-adv-x="569" d="M23 516l356 442l168 -137l-254 -303l254 -305l-158 -135z" />
<glyph unicode="&#x203a;" horiz-adv-x="569" d="M23 213l253 305l-253 303l167 137l357 -442l-367 -438z" />
<glyph unicode="&#x205f;" horiz-adv-x="487" />
<glyph unicode="&#x20ac;" horiz-adv-x="1501" d="M92 485v185h117q-2 18 -2 53q0 33 2 49h-117v184h144q63 245 256 373.5t466 128.5q144 0 278.5 -40t211.5 -111l-207 -277q-63 41 -125.5 60.5t-150.5 19.5q-90 0 -165 -39.5t-118 -114.5h500l-37 -184h-514v-27q0 -25 4 -75h485l-37 -185h-385q45 -72 117 -109.5 t160 -37.5q90 0 169 32t136 81l190 -258q-80 -95 -221.5 -154t-314.5 -59q-160 0 -298.5 53.5t-247 170t-152.5 281.5h-144z" />
<glyph unicode="&#x2122;" horiz-adv-x="1974" d="M88 1145v289h807v-289h-256v-686h-303v686h-248zM942 459v975h270l238 -316l301 316h197v-975h-303v461l-152 -187h-107l-153 180v-454h-291z" />
<glyph unicode="&#xe000;" horiz-adv-x="1075" d="M0 0v1075h1075v-1075h-1075z" />
<glyph unicode="&#xfb01;" horiz-adv-x="1325" d="M31 741v332h131v103q0 193 115 289t309 96q99 0 181.5 -17t122.5 -34.5t93 -47.5l-133 -262q-91 62 -174 62q-123 0 -123 -105v-84h649v-1073h-389v741h-260v-741h-391v741h-131z" />
<glyph unicode="&#xfb02;" horiz-adv-x="1462" d="M27 748v325h131v94q0 82 34.5 157t100 135.5t171 97t236.5 36.5q285 0 434.5 -118.5t149.5 -384.5v-1090h-397v1092q0 35 -7.5 67t-25.5 63t-53 49.5t-84 18.5q-77 0 -122.5 -41t-45.5 -129v-47h207v-325h-207v-748h-391v748h-131z" />
<glyph unicode="&#xfb03;" horiz-adv-x="2045" d="M31 741v332h131v135q0 81 26 149.5t77.5 122t135.5 83.5t193 30q154 0 229 -43l-55 -270q-55 14 -113 14q-102 0 -102 -104v-117h330v103q0 193 115 289t309 96q99 0 181.5 -17t122.5 -34.5t93 -47.5l-133 -262q-91 62 -174 62q-123 0 -123 -105v-84h649v-1073h-389v741 h-260v-741h-391v741h-330v-741h-391v741h-131z" />
<glyph unicode="&#xfb04;" horiz-adv-x="2127" d="M31 741v332h131v135q0 81 26 149.5t77.5 122t135.5 83.5t193 30q154 0 229 -43l-55 -270q-55 14 -113 14q-102 0 -102 -104v-117h321v94q0 82 34.5 157t100 135.5t171.5 97t237 36.5q285 0 434.5 -118.5t149.5 -384.5v-1090h-397v1092q0 35 -7.5 67t-25.5 63t-53 49.5 t-84 18.5q-77 0 -122.5 -41t-45.5 -129v-47h207v-325h-207v-748h-392v741h-321v-741h-391v741h-131z" />
</font>
</defs>
</svg>
